<svg id="Layer_1" data-name="Layer 1" xmlns="http://www.w3.org/2000/svg" viewBox="0 0 20 17.14">
  <defs>
    <style>
      .cls-1 {
        fill: #fff;
      }
    </style>
  </defs>
  <title>assigned to me</title>
  <g>
    <path class="cls-1" d="M401.9,403.27a.72.72,0,0,1-.71.71h-3.57a.72.72,0,0,1-.71-.71v-1.79h-7.5v5.36a1.79,1.79,0,0,0,1.79,1.79h16.43a1.79,1.79,0,0,0,1.79-1.79v-5.36h-7.5Zm0,0" transform="translate(-389.4 -391.49)"/>
    <rect class="cls-1" x="8.57" y="10" width="2.86" height="1.43"/>
    <path class="cls-1" d="M408.88,394.87a1.72,1.72,0,0,0-1.26-.52h-3.93v-1.79a1.07,1.07,0,0,0-1.07-1.07h-6.43a1.07,1.07,0,0,0-1.07,1.07v1.79h-3.93a1.79,1.79,0,0,0-1.79,1.79v4.29h20v-4.29a1.72,1.72,0,0,0-.52-1.26Zm-6.62-.52h-5.71v-1.43h5.71Zm0,0" transform="translate(-389.4 -391.49)"/>
  </g>
</svg>
