<?xml version="1.0" encoding="UTF-8" standalone="no"?>
<svg width="20px" height="23px" viewBox="0 0 20 23" version="1.1" xmlns="http://www.w3.org/2000/svg" xmlns:xlink="http://www.w3.org/1999/xlink">
    <!-- Generator: Sketch 39.1 (31720) - http://www.bohemiancoding.com/sketch -->
    <title>Page 1</title>
    <desc>Created with Sketch.</desc>
    <defs></defs>
    <g id="Messaging" stroke="none" stroke-width="1" fill="none" fill-rule="evenodd">
        <path d="M4.55025,22.6011896 C3.33425,22.6011896 2.19125,22.1271896 1.33125,21.2681896 C-0.44375,19.4921896 -0.44375,16.6041896 1.33125,14.8291896 L11.54625,4.61418964 C12.75125,3.40818964 14.71225,3.40818964 15.91825,4.61418964 C17.12325,5.81918964 17.12325,7.78018964 15.91825,8.98618964 L8.40425,16.4991896 C8.10525,16.7981896 7.62125,16.7981896 7.32325,16.4991896 C7.02425,16.2011896 7.02425,15.7171896 7.32325,15.4181896 L14.83725,7.90418964 C15.44625,7.29518964 15.44625,6.30418964 14.83725,5.69518964 C14.54125,5.40018964 14.14925,5.23718964 13.73225,5.23718964 C13.31425,5.23718964 12.92225,5.40018964 12.62725,5.69518964 L2.41225,15.9101896 C1.23325,17.0891896 1.23325,19.0071896 2.41225,20.1861896 C2.98325,20.7571896 3.74225,21.0721896 4.55025,21.0721896 C5.35825,21.0721896 6.11725,20.7571896 6.68825,20.1861896 L17.14325,9.73118964 C17.99025,8.88418964 18.45725,7.75818964 18.45725,6.56018964 C18.45725,5.36218964 17.99025,4.23518964 17.14325,3.38818964 C15.39425,1.63918964 12.54925,1.64018964 10.80025,3.38818964 L3.04725,11.1421896 C2.74825,11.4401896 2.26425,11.4401896 1.96525,11.1421896 C1.66725,10.8431896 1.66725,10.3591896 1.96525,10.0611896 L9.71925,2.30718964 C12.06425,-0.037810358 15.87925,-0.037810358 18.22425,2.30718964 C19.36025,3.44318964 19.98625,4.95318964 19.98625,6.56018964 C19.98625,8.16618964 19.36025,9.67718964 18.22425,10.8131896 L7.76925,21.2681896 C6.91025,22.1271896 5.76625,22.6011896 4.55025,22.6011896" id="Page-1" fill="#003247"></path>
    </g>
</svg>