<?xml version="1.0" encoding="UTF-8" standalone="no"?>
<svg width="23px" height="24px" viewBox="0 0 23 24" version="1.1" xmlns="http://www.w3.org/2000/svg" xmlns:xlink="http://www.w3.org/1999/xlink">
    <!-- Generator: Sketch 39.1 (31720) - http://www.bohemiancoding.com/sketch -->
    <title>Bar Chart</title>
    <desc>Created with Sketch.</desc>
    <defs>
        <polygon id="path-1" points="11.376 24 22.752 24 22.752 0 0 0 0 12 0 24 11.376 24"></polygon>
    </defs>
    <g id="Page-1" stroke="none" stroke-width="1" fill="none" fill-rule="evenodd">
        <g id="iPad-Pro-Portrait" transform="translate(-330.000000, -1089.000000)">
            <g id="Bar-Chart" transform="translate(330.000000, 1089.000000)">
                <mask id="mask-2" fill="white">
                    <use xlink:href="#path-1"></use>
                </mask>
                <g id="Clip-2"></g>
                <path d="M18,24 L22.8,24 L22.8,0 L18,0 L18,24 Z M12,24 L16.8,24 L16.8,4.8 L12,4.8 L12,24 Z M6,24 L10.8,24 L10.8,9.6 L6,9.6 L6,24 Z M0,24 L4.8,24 L4.8,14.4 L0,14.4 L0,24 Z" id="Fill-1" fill="#07384B" mask="url(#mask-2)"></path>
            </g>
        </g>
    </g>
</svg>