<?xml version="1.0" encoding="UTF-8" standalone="no"?>
<svg width="22px" height="24px" viewBox="0 0 22 24" version="1.1" xmlns="http://www.w3.org/2000/svg" xmlns:xlink="http://www.w3.org/1999/xlink">
    <!-- Generator: Sketch 39.1 (31720) - http://www.bohemiancoding.com/sketch -->
    <title>Calendar</title>
    <desc>Created with Sketch.</desc>
    <defs></defs>
    <g id="Page-1" stroke="none" stroke-width="1" fill="none" fill-rule="evenodd">
        <g id="iPad-Pro-Portrait" transform="translate(-370.000000, -1086.000000)" fill="#5B8491">
            <path d="M373.6,1086 L373.6,1088.4 L372.4,1088.4 C371.0776,1088.4 370,1089.4776 370,1090.8 L370,1107.6 C370,1108.9224 371.0776,1110 372.4,1110 L389.2,1110 C390.5224,1110 391.6,1108.9224 391.6,1107.6 L391.6,1090.8 C391.6,1089.4776 390.5224,1088.4 389.2,1088.4 L388,1088.4 L388,1086 L385.6,1086 L385.6,1088.4 L376,1088.4 L376,1086 L373.6,1086 Z M372.4,1107.6 L389.2,1107.6 L389.2,1094.4 L372.4,1094.4 L372.4,1107.6 Z M380.8,1105.2 L386.8,1105.2 L386.8,1099.2 L380.8,1099.2 L380.8,1105.2 Z" id="Calendar"></path>
        </g>
    </g>
</svg>