<?xml version="1.0" encoding="UTF-8" standalone="no"?>
<svg width="32px" height="24px" viewBox="0 0 32 24" version="1.1" xmlns="http://www.w3.org/2000/svg" xmlns:xlink="http://www.w3.org/1999/xlink">
    <!-- Generator: Sketch 39.1 (31720) - http://www.bohemiancoding.com/sketch -->
    <title>Conference Call</title>
    <desc>Created with Sketch.</desc>
    <defs>
        <polygon id="path-1" points="0.0378947368 24 31.5789474 24 31.5789474 0 0.0378947368 0"></polygon>
    </defs>
    <g id="Page-1" stroke="none" stroke-width="1" fill="none" fill-rule="evenodd">
        <g id="iPad-Pro-Portrait" transform="translate(-233.000000, -1165.000000)">
            <g id="Conference-Call" transform="translate(233.000000, 1165.000000)">
                <mask id="mask-2" fill="white">
                    <use xlink:href="#path-1"></use>
                </mask>
                <g id="Clip-2"></g>
                <path d="M16.9932632,0 C11.3930526,0 9.31326316,4.32757895 10.9143158,7.99326316 C10.7147368,8.12652632 10.3938947,8.54336842 10.4602105,9.27663158 C10.5934737,10.6086316 11.1934737,10.9269474 11.5263158,10.9932632 C11.6595789,12.2589474 12.4610526,13.7343158 12.9277895,13.9338947 C12.9277895,14.8004211 12.9151579,15.5254737 12.8488421,16.4602105 C11.8275789,19.1425263 5.29957895,18.5204211 4.46021053,23.3292632 C4.42357895,23.5389474 4.64084211,24 5.07221053,24 L26.5263158,24 C27.168,24 27.1553684,23.5263158 27.1187368,23.3090526 C26.2648421,18.5204211 19.7513684,19.14 18.7301053,16.4602105 C18.6637895,15.4591579 18.6511579,14.8004211 18.6511579,13.9338947 C19.1178947,13.7343158 19.86,12.1926316 19.9932632,10.9932632 C20.3267368,10.9932632 20.8591579,10.5915789 21.0593684,9.25642105 C21.1256842,8.52378947 20.8522105,8.06021053 20.5856842,7.99326316 C21.6511579,6.66126316 21.4591579,1.20378947 17.5263158,1.20378947 L16.9932632,0 Z M9.57221053,3.15789474 C5.35578947,3.22926316 3.50842105,6.58484211 4.776,9.45410526 C4.64084211,9.52042105 4.37431579,9.87347368 4.44063158,10.4804211 C4.57642105,11.5610526 4.97873684,11.8225263 5.24968421,11.8225263 C5.38294737,12.8336842 5.98042105,13.9686316 6.31578947,14.1713684 C6.31578947,14.8446316 6.32336842,14.8250526 6.25642105,15.6315789 C5.70884211,17.3583158 0,17.2301053 0,21.4736842 C0,21.4736842 0,22.1052632 0.631578947,22.1052632 L3.49326316,22.1052632 C4.45831579,19.3768421 7.08063158,18.3258947 9.05936842,17.5458947 C10.1494737,17.1170526 11.2673684,16.6825263 11.6052632,16.1444211 C11.6425263,15.5576842 11.6621053,15.0593684 11.6646316,14.5067368 C11.0652632,13.8208421 10.6181053,12.7522105 10.4014737,11.8421053 C9.888,11.4618947 9.33284211,10.7317895 9.19705263,9.37515789 C9.13831579,8.73094737 9.27410526,8.196 9.49326316,7.776 C8.99242105,6.21978947 9.02463158,4.59347368 9.57221053,3.15789474 L9.57221053,3.15789474 Z M24,3.15789474 C23.3955789,3.15789474 22.6825263,3.20715789 22.0067368,3.31578947 C22.5126316,4.79873684 22.5322105,6.56968421 22.0856842,7.83536842 C22.2827368,8.26989474 22.3743158,8.79789474 22.3225263,9.37515789 L22.3023158,9.41431579 L22.3023158,9.45410526 C22.1153684,10.6951579 21.6587368,11.4498947 21.1187368,11.8616842 C20.9134737,12.7155789 20.4966316,13.7936842 19.9143158,14.4871579 C19.9168421,15.0296842 19.9364211,15.5178947 19.9736842,16.1444211 C20.3115789,16.6825263 21.432,17.1170526 22.5195789,17.5458947 C24.4957895,18.3233684 27.1187368,19.3768421 28.0856842,22.1052632 L30.9473684,22.1052632 C31.5789474,22.1052632 31.5789474,21.4932632 31.5789474,21.4932632 C31.5814737,16.6086316 26.1732632,17.7656842 25.3616842,15.5330526 C25.2928421,14.7877895 25.2827368,14.8566316 25.2827368,14.112 C25.6206316,13.9092632 26.2427368,12.7724211 26.3090526,11.8225263 C26.5806316,11.8225263 26.9829474,11.5433684 27.1187368,10.4602105 C27.1850526,9.92021053 26.9854737,9.52042105 26.7827368,9.45410526 C27.5968421,8.37094737 27.4635789,4.10526316 24.4143158,4.10526316 L24,3.15789474 Z" id="Fill-1" fill="#9CAFB7" mask="url(#mask-2)"></path>
            </g>
        </g>
    </g>
</svg>