<?xml version="1.0" encoding="UTF-8" standalone="no"?>
<svg width="23px" height="24px" viewBox="0 0 23 24" version="1.1" xmlns="http://www.w3.org/2000/svg" xmlns:xlink="http://www.w3.org/1999/xlink">
    <!-- Generator: Sketch 39.1 (31720) - http://www.bohemiancoding.com/sketch -->
    <title>Customer Support</title>
    <desc>Created with Sketch.</desc>
    <defs>
        <polygon id="path-1" points="22.7445739 24 0 24 0 12 0 0 22.7445739 0"></polygon>
    </defs>
    <g id="Page-1" stroke="none" stroke-width="1" fill="none" fill-rule="evenodd">
        <g id="iPad-Pro-Portrait" transform="translate(-205.000000, -1036.000000)">
            <g id="Customer-Support" transform="translate(205.000000, 1036.000000)">
                <mask id="mask-2" fill="white">
                    <use xlink:href="#path-1"></use>
                </mask>
                <g id="Clip-2"></g>
                <path d="M11.0769231,0 L11.0769231,7.47138462 C12.6452308,7.83876923 13.8461538,9.32492308 13.8461538,11.0769231 C13.8461538,12.1836923 13.3772308,13.1067692 12.5483077,13.8461538 L15.8658462,16.6153846 L16.0670769,16.6153846 C16.8064615,16.6153846 17.4516923,17.2606154 17.4516923,18 C17.4516923,18.7393846 16.8932308,19.3846154 16.1538462,19.3846154 C15.4144615,19.3846154 14.7692308,18.8261538 14.7692308,18.0867692 L10.7889231,14.7692308 L10.1538462,14.7692308 C8.124,14.7692308 6.46153846,13.1067692 6.46153846,11.0769231 C6.46153846,9.32492308 7.66246154,7.93292308 9.23076923,7.47138462 L9.23076923,0.0867692308 C4.05969231,0.548307692 0,4.89323077 0,10.1538462 C0,12.5556923 0.843692308,14.6898462 2.13415385,16.4418462 C3.05723077,17.6427692 3.69230769,19.1178462 3.69230769,20.5956923 L3.69230769,21.0572308 C3.69230769,21.5187692 3.98030769,21.8870769 4.44184615,21.9803077 L13.6726154,24 C14.2283077,24.1836923 14.7692308,23.7221538 14.7692308,23.0769231 L14.7692308,21.6923077 L16.3273846,21.7790769 C18.4504615,21.9627692 20.3076923,20.3003077 20.3076923,18.0867692 L20.3076923,15.2307692 L22.2406154,14.2209231 C22.7021538,14.0372308 22.8932308,13.4713846 22.6153846,13.0098462 L20.2209231,8.94276923 C19.6661538,4.23323077 15.876,0.461538462 11.0769231,0 L11.0769231,0 Z M10.1538462,9.23076923 C9.13384615,9.23076923 8.30769231,10.0569231 8.30769231,11.0769231 C8.30769231,12.0969231 9.13384615,12.9230769 10.1538462,12.9230769 C11.1738462,12.9230769 12,12.0969231 12,11.0769231 C12,10.0569231 11.1738462,9.23076923 10.1538462,9.23076923 L10.1538462,9.23076923 Z" id="Fill-1" fill="#5B8491" mask="url(#mask-2)"></path>
            </g>
        </g>
    </g>
</svg>