<?xml version="1.0" encoding="UTF-8" standalone="no"?>
<svg width="25px" height="25px" viewBox="0 0 25 25" version="1.1" xmlns="http://www.w3.org/2000/svg" xmlns:xlink="http://www.w3.org/1999/xlink">
    <!-- Generator: Sketch 39.1 (31720) - http://www.bohemiancoding.com/sketch -->
    <title>Page 1</title>
    <desc>Created with Sketch.</desc>
    <defs>
        <polygon id="path-1" points="24 24.0505846 24 0 0.000276923077 0 0.000276923077 24.0505846 24 24.0505846"></polygon>
    </defs>
    <g id="Boatyard---Order-Flow" stroke="none" stroke-width="1" fill="none" fill-rule="evenodd">
        <g id="Page-1" transform="translate(0.362816, 0.505831)">
            <mask id="mask-2" fill="white">
                <use xlink:href="#path-1"></use>
            </mask>
            <g id="Clip-2"></g>
            <path d="M2.13073846,18.4945846 L14.6633538,5.96196923 L18.0888923,9.38750769 L5.55627692,21.8933538 L2.10581538,21.9201231 L2.13073846,18.4945846 Z M18.0888923,2.53643077 L21.5135077,5.96196923 L19.5861231,7.88935385 L16.1615077,4.46473846 L18.0888923,2.53643077 Z M0.0252,18.0376615 L0.000276923077,22.9853538 C0.000276923077,23.2641231 0.101815385,23.5428923 0.304892308,23.7459692 C0.507969231,23.9490462 0.760892308,24.0505846 1.04058462,24.0505846 L5.96243077,24.0256615 C6.2412,24.0256615 6.49504615,23.9241231 6.69812308,23.7210462 L23.6956615,6.72258462 C24.1018154,6.31735385 24.1018154,5.65735385 23.6956615,5.22627692 L18.8245846,0.304430769 C18.4184308,-0.101723077 17.7593538,-0.101723077 17.3282769,0.304430769 L13.9285846,3.72996923 L0.329815385,17.3019692 C0.152584615,17.5050462 0.0252,17.7588923 0.0252,18.0376615 L0.0252,18.0376615 Z" id="Fill-1" fill="#5A8392" mask="url(#mask-2)"></path>
        </g>
    </g>
</svg>