<svg id="Layer_1" data-name="Layer 1" xmlns="http://www.w3.org/2000/svg" viewBox="0 0 20 21.66">
  <defs>
    <style>
      .cls-1 {
        fill: #fff;
      }
    </style>
  </defs>
  <title>invoices overdue</title>
  <path class="cls-1" d="M395,398.65a1.3,1.3,0,0,1-.76.26v-1.78a2.79,2.79,0,0,1,.83.39.8.8,0,0,1,.23.56.85.85,0,0,1-.3.56ZM393.54,394a1.32,1.32,0,0,0-.7.26.81.81,0,0,0-.26.56.69.69,0,0,0,.2.53,2.19,2.19,0,0,0,.76.39Zm15.54,3.77v11a2.44,2.44,0,0,1-2.45,2.45H391.53a2.44,2.44,0,0,1-2.45-2.45V392a2.44,2.44,0,0,1,2.45-2.45H401a2.38,2.38,0,0,1,2,.89l5.16,5.22a2.43,2.43,0,0,1,.92,2.12Zm-10.88-2.45h3.64a.74.74,0,0,0,.76-.73V394a.74.74,0,0,0-.76-.73H398.2ZM393.54,397v2a3.36,3.36,0,0,1-1.72-.86l-.73.86a4.45,4.45,0,0,0,2.45,1.09v.72h.63V400a2.64,2.64,0,0,0,1.65-.59,1.9,1.9,0,0,0,.63-1.42,1.59,1.59,0,0,0-.53-1.32,4,4,0,0,0-1.69-.73h0v-1.89a3.16,3.16,0,0,1,1.42.59l.66-.92a4.14,4.14,0,0,0-2.09-.73v-.56h-.63v.5a2.45,2.45,0,0,0-1.56.59,1.9,1.9,0,0,0-.63,1.42,1.8,1.8,0,0,0,.53,1.32,3.93,3.93,0,0,0,1.63.7Zm13.59,10.71a.74.74,0,0,0-.76-.73H391.72a.71.71,0,0,0-.73.73v.56a.74.74,0,0,0,.73.73h14.65a.77.77,0,0,0,.76-.73Zm0-4.57a.74.74,0,0,0-.76-.73H391.72a.71.71,0,0,0-.73.73v.56a.74.74,0,0,0,.73.73h14.65a.77.77,0,0,0,.76-.73Zm0-4.56a.74.74,0,0,0-.76-.73H398.2v2h8.17a.77.77,0,0,0,.76-.73v-.56Zm0,0" transform="translate(-389.08 -389.53)"/>
</svg>
