<?xml version="1.0" encoding="utf-8"?>
<!-- Generator: Adobe Illustrator 16.0.0, SVG Export Plug-In . SVG Version: 6.00 Build 0)  -->
<!DOCTYPE svg PUBLIC "-//W3C//DTD SVG 1.1//EN" "http://www.w3.org/Graphics/SVG/1.1/DTD/svg11.dtd">
<svg version="1.1" id="Layer_1" xmlns="http://www.w3.org/2000/svg" xmlns:xlink="http://www.w3.org/1999/xlink" x="0px" y="0px"
	 width="102.455px" height="102.453px" viewBox="0 0 102.455 102.453" enable-background="new 0 0 102.455 102.453"
	 xml:space="preserve">
<g>
	<g>
		<path fill="#FFFFFF" d="M51.225,0C22.981,0,0,22.979,0,51.226s22.981,51.228,51.225,51.228c28.246,0,51.23-22.981,51.23-51.228
			S79.471,0,51.225,0z M61.508,96.308l13.693-71.072l6.195-1.658l0.496-2.549l-7.357,1.973l-6.588-1.973l-0.494,2.549l5.551,1.658
			l-0.617,3.17l-57,15.204l11.597,7.241l-14.412,7.238l51.059,15.357l-4.67,23.364c-2.516,0.425-5.1,0.65-7.736,0.65
			c-25.492,0-46.234-20.739-46.234-46.235c0-25.492,20.743-46.234,46.234-46.234c25.496,0,46.236,20.742,46.236,46.234
			C97.461,73.188,82.068,91.618,61.508,96.308z M64.127,70.912l-2.428-0.735l7.484-38.498l2.707-0.727L64.127,70.912z
			 M54.383,51.071c0.811,1.123,0.592,2.713,0.338,4.012c-0.461,2.388-1.104,3.864-2.307,4.896c-1.063,0.914-2.44,1.329-4.386,1.329
			h-5.22l4.08-20.999h5.25c1.945,0,3.135,0.413,3.848,1.297c0.754,0.972,0.838,2.36,0.436,4.424
			c-0.275,1.417-0.652,2.597-1.779,3.541c-0.387,0.323-0.787,0.56-1.232,0.736C53.818,50.483,54.15,50.749,54.383,51.071z"/>
		<path fill="#FFFFFF" d="M49.555,51.78h-1.593l-1.273,6.549h1.592c1.797,0,2.668-0.828,3.143-3.274
			C51.877,52.724,51.326,51.78,49.555,51.78z"/>
		<path fill="#FFFFFF" d="M51.175,43.287h-1.562l-1.107,5.693h1.564c1.739,0,2.643-0.856,3.034-2.86
			C53.518,43.995,52.947,43.287,51.175,43.287z"/>
	</g>
</g>
</svg>
