<?xml version="1.0" encoding="UTF-8" standalone="no"?>
<svg width="24px" height="24px" viewBox="0 0 24 24" version="1.1" xmlns="http://www.w3.org/2000/svg" xmlns:xlink="http://www.w3.org/1999/xlink">
    <!-- Generator: Sketch 39.1 (31720) - http://www.bohemiancoding.com/sketch -->
    <title>Maintenance</title>
    <desc>Created with Sketch.</desc>
    <defs>
        <polygon id="path-1" points="0.0553846154 24 0.0553846154 0 12.0258279 0 23.9962711 0 23.9962711 24"></polygon>
    </defs>
    <g id="Page-1" stroke="none" stroke-width="1" fill="none" fill-rule="evenodd">
        <g id="iPad-Pro-Portrait" transform="translate(-381.000000, -1139.000000)">
            <g id="Maintenance" transform="translate(381.000000, 1139.000000)">
                <mask id="mask-2" fill="white">
                    <use xlink:href="#path-1"></use>
                </mask>
                <g id="Clip-2"></g>
                <path d="M1.21107692,0 L0,1.21107692 L2.13415385,4.90338462 L3.51876923,4.70215385 L11.9713846,13.1538462 L11.2504615,13.8461538 C10.8821538,14.2135385 10.8821538,14.7766154 11.2504615,15.144 L11.6252308,15.5187692 C11.9926154,15.8870769 12.5584615,15.8870769 12.8363077,15.5187692 L13.9329231,16.6153846 C13.8387692,17.1710769 13.9329231,17.8264615 14.3944615,18.288 L19.3846154,23.2504615 C20.4018462,24.2667692 22.0596923,24.2667692 23.0769231,23.2504615 C24.2778462,22.1427692 24.2667692,20.4876923 23.2504615,19.4713846 L18.288,14.4812308 C17.8264615,14.0196923 17.1710769,13.8350769 16.6153846,14.0196923 L15.4043077,12.9230769 C15.6812308,12.5556923 15.6812308,11.9889231 15.4043077,11.712 L15.0572308,11.3649231 C14.6898462,10.9975385 14.1276923,10.9975385 13.7593846,11.3649231 L13.1538462,11.9713846 L4.70215385,3.51876923 L4.90338462,2.13415385 L1.21107692,0 Z M19.2110769,0.0286153846 C17.3907692,-0.122769231 14.9787692,1.08553846 13.8461538,2.13415385 C12.4578462,3.52246154 12.6812308,5.34369231 13.7889231,7.09661538 L11.8264615,9.05723077 L13.2110769,10.6153846 C13.9504615,9.97015385 15.0396923,9.97015385 15.7790769,10.6153846 L16.2406154,11.0769231 L17.0483077,10.2692308 C18.7172308,11.2504615 20.4553846,11.3907692 21.7790769,10.0670769 C23.0695385,8.86615385 24.4726154,5.90584615 23.8264615,4.15384615 L21.2307692,6.83630769 C20.8633846,7.20461538 20.3003077,7.20461538 19.9329231,6.83630769 L17.2504615,4.15384615 C16.8821538,3.78646154 16.8821538,3.22338462 17.2504615,2.856 L19.9329231,0.173538462 C19.7021538,0.0941538462 19.4713846,0.0507692308 19.2110769,0.0286153846 L19.2110769,0.0286153846 Z M9.05723077,11.5384615 L5.712,14.8846154 C5.36492308,14.8015385 4.99015385,14.7692308 4.61538462,14.7692308 C2.02984615,14.7692308 0,16.7990769 0,19.3846154 C0,21.9701538 2.02984615,24 4.61538462,24 C7.20092308,24 9.23076923,21.9701538 9.23076923,19.3846154 C9.23076923,18.912 9.15507692,18.4541538 9.02861538,18.0286154 L10.9901538,16.0670769 L10.7021538,15.6923077 C9.96276923,14.9529231 9.97015385,13.8350769 10.6153846,13.0966154 L9.05723077,11.5384615 Z" id="Fill-1" fill="#9CAFB7" mask="url(#mask-2)"></path>
            </g>
        </g>
    </g>
</svg>