<?xml version="1.0" encoding="UTF-8" standalone="no"?>
<svg width="22px" height="24px" viewBox="0 0 22 24" version="1.1" xmlns="http://www.w3.org/2000/svg" xmlns:xlink="http://www.w3.org/1999/xlink">
    <!-- Generator: Sketch 39.1 (31720) - http://www.bohemiancoding.com/sketch -->
    <title>Money Bag</title>
    <desc>Created with Sketch.</desc>
    <defs></defs>
    <g id="Page-1" stroke="none" stroke-width="1" fill="none" fill-rule="evenodd">
        <g id="iPad-Pro-Portrait" transform="translate(-271.000000, -1020.000000)" fill="#F7941E">
            <path d="M281.037538,1020.26031 C280.522462,1020.31015 280.053538,1020.75046 279.883692,1021.38462 C279.646462,1022.26523 278.687385,1022.32246 277.605538,1022.22185 C276.34,1022.10277 276.173846,1022.90677 276.595692,1023.57785 C276.819077,1023.93415 277.800308,1026.52708 278.153846,1027.15385 C278.463077,1027.70215 280.418154,1027.99846 281.384615,1027.96246 C282.350154,1027.92923 284.341231,1027.49354 284.268308,1026.66369 C284.131692,1025.124 285.065846,1023.05446 285.249538,1022.76923 C285.624308,1022.18954 285.656615,1020.98123 284.067077,1021.55815 C283.695077,1021.692 282.822769,1022.61138 282.451692,1021.52954 C282.115692,1020.55569 281.553538,1020.20954 281.037538,1020.26031 L281.037538,1020.26031 Z M284.788,1028.22185 C284.536,1028.38062 283.955385,1029.19846 281.470462,1029.28892 C278.903385,1029.38308 278.156615,1028.42677 278.008923,1028.48123 C274.212308,1029.80123 271,1033.69477 271,1037.62523 C271,1042.68092 273.883692,1044 281.903385,1044 C289.923077,1044 292.806769,1042.64492 292.806769,1037.62523 C292.806769,1033.40308 288.916923,1029.36462 284.903385,1028.22185 C284.878462,1028.21446 284.824,1028.19969 284.788,1028.22185 L284.788,1028.22185 Z M281.008923,1031.13508 L281.932,1031.13508 C282.007692,1031.13508 282.047385,1031.19969 282.047385,1031.27908 L282.047385,1032.17354 C282.750769,1032.21692 283.223385,1032.40062 283.518769,1032.54831 C283.579692,1032.57785 283.623077,1032.65631 283.605538,1032.72185 L283.288,1033.76031 C283.276923,1033.8 283.237231,1033.82862 283.201231,1033.84615 C283.165231,1033.86462 283.121846,1033.86462 283.085846,1033.84615 C282.794154,1033.69846 282.350154,1033.44277 281.644,1033.44277 C281.067077,1033.44277 280.720923,1033.70585 280.720923,1034.10646 C280.720923,1034.46277 281.037538,1034.69354 281.990154,1035.05815 C283.312923,1035.55569 283.893538,1036.22677 283.893538,1037.27908 C283.893538,1038.32862 283.132923,1039.12154 281.990154,1039.356 L281.990154,1040.39446 C281.990154,1040.47015 281.950462,1040.53846 281.874769,1040.53846 L280.923077,1040.53846 C280.843692,1040.53846 280.806769,1040.47015 280.806769,1040.39446 L280.806769,1039.44277 C280.151385,1039.40308 279.461846,1039.21569 279.047385,1038.95262 C278.993846,1038.92031 278.971692,1038.86954 278.990154,1038.80862 L279.278154,1037.74062 C279.289231,1037.69723 279.325231,1037.67231 279.364923,1037.65477 C279.408308,1037.64 279.472923,1037.63262 279.508923,1037.65477 C279.801538,1037.83108 280.414462,1038.11631 281.182462,1038.11631 C281.824,1038.11631 282.220923,1037.83846 282.220923,1037.39446 C282.220923,1036.97262 281.914462,1036.67723 281.095692,1036.38462 C280.093231,1036.02092 279.076923,1035.50492 279.076923,1034.27908 C279.076923,1033.26277 279.754462,1032.46892 280.864923,1032.23077 L280.864923,1031.27908 C280.864923,1031.19969 280.929538,1031.13508 281.008923,1031.13508 L281.008923,1031.13508 Z" id="Money-Bag"></path>
        </g>
    </g>
</svg>