<svg id="Layer_1" data-name="Layer 1" xmlns="http://www.w3.org/2000/svg" xmlns:xlink="http://www.w3.org/1999/xlink" viewBox="0 0 19.99 18.43">
  <defs>
    <style>
      .cls-1 {
        fill: none;
      }

      .cls-2 {
        fill: #fff;
      }

      .cls-3 {
        clip-path: url(#clip-path);
      }
    </style>
    <clipPath id="clip-path" transform="translate(-173.48 -159.89)">
      <rect class="cls-1" x="173.48" y="159.85" width="20" height="18.52"/>
    </clipPath>
  </defs>
  <title>monthly revenue</title>
  <g>
    <path class="cls-2" d="M188.16,174.11a1.74,1.74,0,0,1-1.74-1.74v-2.89a1.74,1.74,0,0,1,1.74-1.74h4.61v-2.87a1.34,1.34,0,0,0-1.34-1.34H174.82a1.34,1.34,0,0,0-1.34,1.34h0V177a1.34,1.34,0,0,0,1.34,1.34h16.61a1.34,1.34,0,0,0,1.34-1.34h0V174.1h-4.61Z" transform="translate(-173.48 -159.89)"/>
    <g class="cls-3">
      <g>
        <path class="cls-2" d="M192.69,168.7h-4.53a.79.79,0,0,0-.79.79h0v2.89a.79.79,0,0,0,.79.79h4.53a.79.79,0,0,0,.79-.78h0v-2.89a.79.79,0,0,0-.79-.79Zm-3,3.36a1.13,1.13,0,1,1,1.13-1.13h0A1.13,1.13,0,0,1,189.72,172.06Z" transform="translate(-173.48 -159.89)"/>
        <path class="cls-2" d="M189.1,161.08a1.73,1.73,0,0,0-2.18-1.1l-6.81,2.25h9.37Z" transform="translate(-173.48 -159.89)"/>
      </g>
    </g>
  </g>
</svg>
