<?xml version="1.0" encoding="UTF-8"?>
<svg width="29px" height="29px" viewBox="0 0 29 29" version="1.1" xmlns="http://www.w3.org/2000/svg" xmlns:xlink="http://www.w3.org/1999/xlink">
    <!-- Generator: Sketch 40.3 (33839) - http://www.bohemiancoding.com/sketch -->
    <title>Group 3</title>
    <desc>Created with Sketch.</desc>
    <defs></defs>
    <g id="Page-1" stroke="none" stroke-width="1" fill="none" fill-rule="evenodd">
        <g id="Group-3" fill="#658E9D">
            <g id="Anchor" transform="translate(0.000000, 2.222222)">
                <g id="Group">
                    <g transform="translate(2.101449, 0.370370)">
                        <path d="M6.43237561,22.5351852 C1.40042165,21.0358025 -0.619723003,17.654321 0.163582408,13.3333333 L1.81283804,13.3333333 C1.02953263,17.654321 5.51512498,20.7407407 11.1298582,20.7407407 L14.2630798,20.7407407 C19.877813,20.7407407 24.2356533,17.654321 23.4523479,13.3333333 L25.2293556,13.3333333 C26.012661,17.654321 23.9932996,21.0351852 18.9629123,22.5351852 C17.5004811,22.9709877 12.9743169,25.1493827 12.696469,26.2962963 C12.2376012,25.1493827 7.89402351,22.9709877 6.43237561,22.5351852 Z" id="Shape"></path>
                        <path d="M12.1884058,0.740740741 C12.1884058,0.740740741 11.5369565,7.72148148 11.3478261,11.8518519 C11.1788696,15.5525926 11.1906377,21.1577778 6.82718841,20.0540741 C4.57863768,19.4851852 8.7706087,22.2548148 13.0794203,22.2340741 C17.3882319,22.2133333 21.6096232,19.3481481 19.4913623,19.9703704 C15.2884638,21.2037037 14.9253333,15.5511111 14.7101449,11.8518519 C14.547913,9.06222222 13.8695652,0.740740741 13.8695652,0.740740741 C13.8695652,0.331640926 13.4932249,0 13.0289855,0 C12.5647462,0 12.1884058,0.331640926 12.1884058,0.740740741 Z" id="Combined-Shape"></path>
                        <g id="Group-2" transform="translate(3.782609, 4.555556)">
                            <rect id="Rectangle-path" x="2.52173913" y="2.11111111" width="13.8695652" height="1.66666667"></rect>
                            <ellipse id="Oval" cx="17.1304348" cy="2.94444444" rx="2" ry="2"></ellipse>
                            <ellipse id="Oval" cx="2" cy="2.94444444" rx="2" ry="2"></ellipse>
                        </g>
                    </g>
                    <g transform="translate(0.000000, 11.111111)" id="Shape">
                        <path d="M0.252189305,4.81106228 C0.252189305,4.81106228 1.09276901,2.58884006 3.61450815,0.366617839 C4.45508786,1.10735858 5.29566757,5.55180302 5.29566757,5.55180302 C5.29566757,5.55180302 3.61450815,4.07032154 0.252189305,4.81106228 L0.252189305,4.81106228 Z"></path>
                        <path d="M29,4.81481481 C29,4.81481481 28.1594203,2.59259259 25.6376812,0.37037037 C24.7971014,1.11111111 23.9565217,5.55555556 23.9565217,5.55555556 C23.9565217,5.55555556 25.6376812,4.07407407 29,4.81481481 L29,4.81481481 Z"></path>
                    </g>
                </g>
            </g>
            <ellipse id="Oval-2" cx="15.2290547" cy="3" rx="3" ry="3"></ellipse>
        </g>
    </g>
</svg>