<?xml version="1.0" encoding="UTF-8" standalone="no"?>
<svg width="21px" height="22px" viewBox="0 0 21 22" version="1.1" xmlns="http://www.w3.org/2000/svg" xmlns:xlink="http://www.w3.org/1999/xlink">
    <!-- Generator: Sketch 39.1 (31720) - http://www.bohemiancoding.com/sketch -->
    <title>Page 1</title>
    <desc>Created with Sketch.</desc>
    <defs></defs>
    <g id="Messaging" stroke="none" stroke-width="1" fill="none" fill-rule="evenodd">
        <path d="M4.23307293,13.8167901 L16.9592734,13.8167901 L16.9592734,11.9994266 L4.23307293,11.9994266 L4.23307293,13.8167901 Z M4.23307293,10.1808215 L16.9592734,10.1808215 L16.9592734,8.36345801 L4.23307293,8.36345801 L4.23307293,10.1808215 Z M4.23307293,6.54454253 L16.9592734,6.54454253 L16.9592734,4.72717903 L4.23307293,4.72717903 L4.23307293,6.54454253 Z M18.7294568,16.1463056 L15.1415995,16.1463056 C14.854484,16.1463056 14.585061,16.2819482 14.4143437,16.5113303 L12.4135367,19.177314 L10.4142816,16.5113303 C10.2432539,16.2819482 9.97289973,16.1463056 9.68671541,16.1463056 L2.41415745,16.1463056 L2.46288948,2.51064738 L18.7778785,2.51064738 L18.7294568,16.1463056 Z M18.7294568,0.693283878 L2.46288948,0.693283878 C1.43455041,0.693283878 0.596793943,1.50993347 0.596793943,2.51064738 L0.596793943,16.1463056 C0.596793943,17.1501234 1.43455041,17.9649107 2.46288948,17.9649107 L9.23322812,17.9649107 L11.687212,21.2386481 C11.8582398,21.4649262 12.1273523,21.6011896 12.4147782,21.6011896 C12.699721,21.6011896 12.9700751,21.4649262 13.1411028,21.2386481 L15.5963284,17.9649107 L18.7306984,17.9649107 C19.7587271,17.9649107 20.5967939,17.1501234 20.5967939,16.1463056 L20.5967939,2.51064738 C20.5955524,1.50993347 19.7587271,0.693283878 18.7294568,0.693283878 L18.7294568,0.693283878 Z" id="Page-1" fill="#003247"></path>
    </g>
</svg>