<?xml version="1.0" encoding="UTF-8" standalone="no"?>
<svg width="24px" height="24px" viewBox="0 0 24 24" version="1.1" xmlns="http://www.w3.org/2000/svg" xmlns:xlink="http://www.w3.org/1999/xlink">
    <!-- Generator: Sketch 39.1 (31720) - http://www.bohemiancoding.com/sketch -->
    <title>Read Message</title>
    <desc>Created with Sketch.</desc>
    <defs>
        <polygon id="path-1" points="0.072 24 24 24 24 0 0.072 0"></polygon>
    </defs>
    <g id="Page-1" stroke="none" stroke-width="1" fill="none" fill-rule="evenodd">
        <g id="iPad-Pro-Portrait" transform="translate(-265.000000, -1096.000000)">
            <g id="Read-Message" transform="translate(265.000000, 1096.000000)">
                <mask id="mask-2" fill="white">
                    <use xlink:href="#path-1"></use>
                </mask>
                <g id="Clip-2"></g>
                <path d="M12,0 L1.2,6.4872 C0.4776,6.966 0,7.674 0,8.5128 L0,21.6 C0,22.9224 1.0776,24 2.4,24 L21.6,24 C22.9224,24 24,22.9224 24,21.6 L24,8.5128 C24,7.674 23.5224,6.8484 22.8,6.4872 L12,0 Z M12,2.7744 L21.5256,8.4744 L12,15.6 L2.4744,8.4744 L12,2.7744 Z" id="Fill-1" fill="#F7941E" mask="url(#mask-2)"></path>
            </g>
        </g>
    </g>
</svg>