<?xml version="1.0" encoding="UTF-8" standalone="no"?>
<svg width="25px" height="25px" viewBox="0 0 25 25" version="1.1" xmlns="http://www.w3.org/2000/svg" xmlns:xlink="http://www.w3.org/1999/xlink">
    <!-- Generator: Sketch 39.1 (31720) - http://www.bohemiancoding.com/sketch -->
    <title>Shopping Cart</title>
    <desc>Created with Sketch.</desc>
    <defs>
        <polygon id="path-1" points="12.0326814 24 0.072 24 0.072 0 12.0326814 0 23.9933627 0 23.9933627 24 12.0326814 24"></polygon>
    </defs>
    <g id="Page-1" stroke="none" stroke-width="1" fill="none" fill-rule="evenodd">
        <g id="iPad-Pro-Portrait" transform="translate(-307.000000, -1071.000000)">
            <g id="Shopping-Cart" transform="translate(307.719000, 1071.594162)">
                <mask id="mask-2" fill="white">
                    <use xlink:href="#path-1"></use>
                </mask>
                <g id="Clip-2"></g>
                <path d="M0,0 L0,2.4 L2.7372,2.4 L5.8872,11.7744 L4.0872,14.1744 L4.05,14.1744 C3.4968,14.9484 3.474,15.9792 3.8628,16.7256 C4.2516,17.4708 5.0724,18 6,18 L21.6,18 L21.6,15.6 L6,15.6 C6.0048,15.5952 5.9856,15.5808 6,15.5628 L7.8,13.2 L19.0872,13.2 C19.566,13.2 20.0532,12.966 20.1744,12.4872 L23.8872,4.0872 C24.2484,3.2484 23.6388,2.4 22.8,2.4 L5.25,2.4 L4.7256,0.8256 L4.4628,0 L0,0 Z M6,19.2 C4.674,19.2 3.6,20.274 3.6,21.6 C3.6,22.926 4.674,24 6,24 C7.326,24 8.4,22.926 8.4,21.6 C8.4,20.274 7.326,19.2 6,19.2 L6,19.2 Z M19.2,19.2 C17.874,19.2 16.8,20.274 16.8,21.6 C16.8,22.926 17.874,24 19.2,24 C20.526,24 21.6,22.926 21.6,21.6 C21.6,20.274 20.526,19.2 19.2,19.2 L19.2,19.2 Z" id="Fill-1" fill="#07384B" mask="url(#mask-2)"></path>
            </g>
        </g>
    </g>
</svg>