<svg id="Layer_1" data-name="Layer 1" xmlns="http://www.w3.org/2000/svg" viewBox="0 0 20 20">
  <defs>
    <style>
      .cls-1 {
        fill: #fff;
      }
    </style>
  </defs>
  <title>todays scheduled orders</title>
  <g>
    <path class="cls-1" d="M391.82,397.27H390v11.82a.91.91,0,0,0,.91.91h10v-8.18a.91.91,0,0,1,.91-.91H410v-3.64Zm0,0" transform="translate(-390 -390)"/>
    <path class="cls-1" d="M406.9,402.73h-4.17v6.74l6.74-6.74Zm0,0" transform="translate(-390 -390)"/>
    <path class="cls-1" d="M409.09,391.82h-5.15v-.91a.91.91,0,0,0-1.82,0v.91h-4.24v-.91a.91.91,0,0,0-1.82,0v.91h-5.15a.91.91,0,0,0-.91.91v2.73h20v-2.73a.91.91,0,0,0-.91-.91Zm0,0" transform="translate(-390 -390)"/>
  </g>
</svg>
