<?xml version="1.0" encoding="utf-8"?>
<!-- Generator: Adobe Illustrator 20.1.0, SVG Export Plug-In . SVG Version: 6.00 Build 0)  -->
<svg version="1.1" id="Layer_1" xmlns="http://www.w3.org/2000/svg" xmlns:xlink="http://www.w3.org/1999/xlink" x="0px" y="0px"
	 viewBox="0 0 81.1 97.3" style="enable-background:new 0 0 81.1 97.3;" xml:space="preserve">
<style type="text/css">
	.st0{fill:#094359;}
</style>
<title>Trash</title>
<path class="st0" d="M32.4,0c-4.3-0.2-7.9,3.2-8.1,7.5c0,0.2,0,0.4,0,0.6v4H0v8.1h4v64.9c0,6.7,5.5,12.1,12.2,12.2h48.6
	c6.7,0,12.1-5.5,12.2-12.2V20.3h4v-8.1H56.8v-4c0.2-4.3-3.2-7.9-7.5-8.1c-0.2,0-0.4,0-0.6,0L32.4,0L32.4,0z M32.4,8.1h16.2v4H32.4
	V8.1z M12.2,20.3h56.8v64.9c0,2.2-1.7,4-3.9,4c0,0-0.1,0-0.1,0H16.2c-2.2,0-4-1.7-4-3.9c0,0,0-0.1,0-0.1L12.2,20.3L12.2,20.3z
	 M20.3,32.4V77h8.1V32.4L20.3,32.4L20.3,32.4z M36.5,32.4V77h8.1V32.4L36.5,32.4L36.5,32.4z M52.7,32.4V77h8.1V32.4L52.7,32.4
	L52.7,32.4z"/>
</svg>
